<?xml version="1.0" encoding="UTF-8" standalone="no"?><!DOCTYPE svg PUBLIC "-//W3C//DTD SVG 1.1//EN" "http://www.w3.org/Graphics/SVG/1.1/DTD/svg11.dtd"><svg width="100%" height="100%" viewBox="0 0 402 153" version="1.1" xmlns="http://www.w3.org/2000/svg" xmlns:xlink="http://www.w3.org/1999/xlink" xml:space="preserve" xmlns:serif="http://www.serif.com/" style="fill-rule:evenodd;clip-rule:evenodd;stroke-linecap:round;stroke-linejoin:round;stroke-miterlimit:1.5;"><g transform="matrix(202.105,0,0,202.105,57.6314,144.375)"></g><text x="-1.776px" y="144.375px" style="font-family:'BerlinSansFB-Reg', 'Berlin Sans FB', sans-serif;font-size:202.105px;">f</text><g transform="matrix(152.459,0,0,152.459,217.929,80.4529)"></g><text x="70.98px" y="80.453px" style="font-family:'BerlinSansFB-Reg', 'Berlin Sans FB', sans-serif;font-size:152.459px;">ee</text><path d="M90.558,38.095c-0.522,-8.505 5.323,-12.357 5.323,-12.357l22.664,-1.089l-9.503,13.304" style="fill:none;stroke:#000;stroke-width:24.39px;"/><path d="M73.883,95.858c0.207,24.708 26.976,43.713 70.609,44.188c43.632,0.476 70.502,-25.182 70.609,-43.713" style="fill:none;stroke:#000;stroke-width:24.39px;"/><g transform="matrix(202.083,0,0,202.083,405.447,144.375)"></g><text x="219.053px" y="144.375px" style="font-family:'BerlinSansFB-Reg', 'Berlin Sans FB', sans-serif;font-size:202.083px;">lie</text><path d="M170.659,38.095c0,-0 9.123,-8.885 6.462,-13.446c-2.66,-4.562 20.526,-0 20.526,-0l-5.321,13.446" style="fill:none;stroke:#000;stroke-width:24.39px;"/></svg>